<svg width="52" height="52" viewBox="0 0 52 52" fill="none" xmlns="http://www.w3.org/2000/svg">
<path d="M2.7699 24.2045L18.4856 18.4839L24.2024 2.77198C24.3335 2.41205 24.5721 2.10115 24.8859 1.88147C25.1997 1.66178 25.5734 1.54395 25.9565 1.54395C26.3395 1.54395 26.7133 1.66178 27.0271 1.88147C27.3409 2.10115 27.5795 2.41205 27.7106 2.77198L33.4312 18.4876L49.1468 24.2045C49.5068 24.3355 49.8177 24.5741 50.0374 24.8879C50.257 25.2017 50.3749 25.5755 50.3749 25.9586C50.3749 26.3416 50.257 26.7154 50.0374 27.0292C49.8177 27.343 49.5068 27.5816 49.1468 27.7127L33.4274 33.4333L27.7106 49.1489C27.5795 49.5088 27.3409 49.8197 27.0271 50.0394C26.7133 50.2591 26.3395 50.377 25.9565 50.377C25.5734 50.377 25.1997 50.2591 24.8859 50.0394C24.5721 49.8197 24.3335 49.5088 24.2024 49.1489L18.4818 33.4295L2.7699 27.7127C2.40997 27.5816 2.09908 27.343 1.87939 27.0292C1.65971 26.7154 1.54187 26.3416 1.54187 25.9586C1.54187 25.5755 1.65971 25.2017 1.87939 24.8879C2.09908 24.5741 2.40997 24.3355 2.7699 24.2045Z" stroke="white" stroke-opacity="0.21" stroke-width="1.59174" stroke-linecap="round" stroke-linejoin="round"/>
</svg>
